<mxfile host="app.diagrams.net" modified="2024-04-03T11:36:16.646Z" agent="Mozilla/5.0 (X11; Linux x86_64) AppleWebKit/537.36 (KHTML, like Gecko) Chrome/121.0.0.0 Safari/537.36 Edg/121.0.0.0" etag="z83GSa4tJh07QoflStEL" version="24.2.1" type="device">
  <diagram name="Page-1" id="13e1069c-82ec-6db2-03f1-153e76fe0fe0">
    <mxGraphModel dx="2093" dy="1160" grid="1" gridSize="10" guides="1" tooltips="1" connect="1" arrows="1" fold="1" page="1" pageScale="1" pageWidth="1100" pageHeight="850" background="none" math="0" shadow="0">
      <root>
        <mxCell id="0" />
        <mxCell id="1" parent="0" />
        <mxCell id="7baba1c4bc27f4b0-2" value=":Auth System" style="shape=umlLifeline;perimeter=lifelinePerimeter;whiteSpace=wrap;html=1;container=1;collapsible=0;recursiveResize=0;outlineConnect=0;rounded=1;shadow=0;comic=0;labelBackgroundColor=none;strokeWidth=1;fontFamily=Verdana;fontSize=12;align=center;" parent="1" vertex="1">
          <mxGeometry x="770" y="320" width="100" height="1000" as="geometry" />
        </mxCell>
        <mxCell id="7baba1c4bc27f4b0-10" value="" style="html=1;points=[];perimeter=orthogonalPerimeter;rounded=0;shadow=0;comic=0;labelBackgroundColor=none;strokeWidth=1;fontFamily=Verdana;fontSize=12;align=center;" parent="7baba1c4bc27f4b0-2" vertex="1">
          <mxGeometry x="45" y="100" width="10" height="50" as="geometry" />
        </mxCell>
        <mxCell id="7baba1c4bc27f4b0-3" value=":File Upload" style="shape=umlLifeline;perimeter=lifelinePerimeter;whiteSpace=wrap;html=1;container=1;collapsible=0;recursiveResize=0;outlineConnect=0;rounded=1;shadow=0;comic=0;labelBackgroundColor=none;strokeWidth=1;fontFamily=Verdana;fontSize=12;align=center;" parent="1" vertex="1">
          <mxGeometry x="930" y="320" width="100" height="1000" as="geometry" />
        </mxCell>
        <mxCell id="7baba1c4bc27f4b0-13" value="" style="html=1;points=[];perimeter=orthogonalPerimeter;rounded=0;shadow=0;comic=0;labelBackgroundColor=none;strokeWidth=1;fontFamily=Verdana;fontSize=12;align=center;" parent="7baba1c4bc27f4b0-3" vertex="1">
          <mxGeometry x="45" y="190" width="10" height="70" as="geometry" />
        </mxCell>
        <mxCell id="7baba1c4bc27f4b0-4" value=":Database" style="shape=umlLifeline;perimeter=lifelinePerimeter;whiteSpace=wrap;html=1;container=1;collapsible=0;recursiveResize=0;outlineConnect=0;rounded=1;shadow=0;comic=0;labelBackgroundColor=none;strokeWidth=1;fontFamily=Verdana;fontSize=12;align=center;" parent="1" vertex="1">
          <mxGeometry x="1070" y="320" width="100" height="1000" as="geometry" />
        </mxCell>
        <mxCell id="WB4wZnMkrDHjOiweGWmY-13" value="" style="html=1;points=[[0,0,0,0,5],[0,1,0,0,-5],[1,0,0,0,5],[1,1,0,0,-5]];perimeter=orthogonalPerimeter;outlineConnect=0;targetShapes=umlLifeline;portConstraint=eastwest;newEdgeStyle={&quot;curved&quot;:0,&quot;rounded&quot;:0};" vertex="1" parent="7baba1c4bc27f4b0-4">
          <mxGeometry x="45" y="200" width="10" height="50" as="geometry" />
        </mxCell>
        <mxCell id="WB4wZnMkrDHjOiweGWmY-32" value="" style="html=1;points=[];perimeter=orthogonalPerimeter;rounded=0;shadow=0;comic=0;labelBackgroundColor=none;strokeWidth=1;fontFamily=Verdana;fontSize=12;align=center;" vertex="1" parent="7baba1c4bc27f4b0-4">
          <mxGeometry x="45" y="470" width="10" height="50" as="geometry" />
        </mxCell>
        <mxCell id="WB4wZnMkrDHjOiweGWmY-41" value="" style="html=1;points=[];perimeter=orthogonalPerimeter;rounded=0;shadow=0;comic=0;labelBackgroundColor=none;strokeWidth=1;fontFamily=Verdana;fontSize=12;align=center;" vertex="1" parent="7baba1c4bc27f4b0-4">
          <mxGeometry x="45" y="616" width="10" height="50" as="geometry" />
        </mxCell>
        <mxCell id="WB4wZnMkrDHjOiweGWmY-58" value="" style="html=1;points=[];perimeter=orthogonalPerimeter;rounded=0;shadow=0;comic=0;labelBackgroundColor=none;strokeWidth=1;fontFamily=Verdana;fontSize=12;align=center;" vertex="1" parent="7baba1c4bc27f4b0-4">
          <mxGeometry x="45" y="910" width="10" height="50" as="geometry" />
        </mxCell>
        <mxCell id="7baba1c4bc27f4b0-5" value=":Encryption&amp;nbsp;" style="shape=umlLifeline;perimeter=lifelinePerimeter;whiteSpace=wrap;html=1;container=1;collapsible=0;recursiveResize=0;outlineConnect=0;rounded=1;shadow=0;comic=0;labelBackgroundColor=none;strokeWidth=1;fontFamily=Verdana;fontSize=12;align=center;" parent="1" vertex="1">
          <mxGeometry x="1210" y="320" width="100" height="1000" as="geometry" />
        </mxCell>
        <mxCell id="WB4wZnMkrDHjOiweGWmY-19" value="" style="html=1;points=[];perimeter=orthogonalPerimeter;rounded=0;shadow=0;comic=0;labelBackgroundColor=none;strokeWidth=1;fontFamily=Verdana;fontSize=12;align=center;" vertex="1" parent="7baba1c4bc27f4b0-5">
          <mxGeometry x="45" y="300" width="10" height="50" as="geometry" />
        </mxCell>
        <mxCell id="WB4wZnMkrDHjOiweGWmY-26" value="" style="html=1;points=[];perimeter=orthogonalPerimeter;rounded=0;shadow=0;comic=0;labelBackgroundColor=none;strokeWidth=1;fontFamily=Verdana;fontSize=12;align=center;" vertex="1" parent="7baba1c4bc27f4b0-5">
          <mxGeometry x="45" y="380" width="10" height="170" as="geometry" />
        </mxCell>
        <mxCell id="WB4wZnMkrDHjOiweGWmY-27" value="" style="html=1;points=[];perimeter=orthogonalPerimeter;rounded=0;shadow=0;comic=0;labelBackgroundColor=none;strokeWidth=1;fontFamily=Verdana;fontSize=12;align=center;" vertex="1" parent="7baba1c4bc27f4b0-5">
          <mxGeometry x="50" y="400" width="10" height="50" as="geometry" />
        </mxCell>
        <mxCell id="WB4wZnMkrDHjOiweGWmY-28" value="&lt;font style=&quot;font-size: 10px;&quot;&gt;Encrypt File Contents&lt;/font&gt;" style="html=1;verticalAlign=bottom;endArrow=block;labelBackgroundColor=none;fontFamily=Verdana;fontSize=12;elbow=vertical;edgeStyle=orthogonalEdgeStyle;curved=1;entryX=0.997;entryY=0.562;entryDx=0;entryDy=0;entryPerimeter=0;" edge="1" parent="7baba1c4bc27f4b0-5" target="WB4wZnMkrDHjOiweGWmY-27">
          <mxGeometry x="-0.2565" y="6" relative="1" as="geometry">
            <mxPoint x="55.4" y="390" as="sourcePoint" />
            <mxPoint x="55.000000000000135" y="428.1" as="targetPoint" />
            <Array as="points">
              <mxPoint x="104" y="390" />
              <mxPoint x="104" y="428" />
            </Array>
            <mxPoint as="offset" />
          </mxGeometry>
        </mxCell>
        <mxCell id="WB4wZnMkrDHjOiweGWmY-29" value="" style="html=1;points=[];perimeter=orthogonalPerimeter;rounded=0;shadow=0;comic=0;labelBackgroundColor=none;strokeWidth=1;fontFamily=Verdana;fontSize=12;align=center;" vertex="1" parent="7baba1c4bc27f4b0-5">
          <mxGeometry x="40" y="470" width="10" height="50" as="geometry" />
        </mxCell>
        <mxCell id="WB4wZnMkrDHjOiweGWmY-31" value="&lt;font style=&quot;font-size: 9px;&quot;&gt;Store encrypted file details&lt;/font&gt;" style="html=1;verticalAlign=bottom;endArrow=block;curved=0;rounded=0;entryX=1.045;entryY=0.001;entryDx=0;entryDy=0;entryPerimeter=0;" edge="1" parent="7baba1c4bc27f4b0-5" target="WB4wZnMkrDHjOiweGWmY-32">
          <mxGeometry width="80" relative="1" as="geometry">
            <mxPoint x="40" y="470" as="sourcePoint" />
            <mxPoint x="-80" y="470" as="targetPoint" />
          </mxGeometry>
        </mxCell>
        <mxCell id="7baba1c4bc27f4b0-6" value=":Download" style="shape=umlLifeline;perimeter=lifelinePerimeter;whiteSpace=wrap;html=1;container=1;collapsible=0;recursiveResize=0;outlineConnect=0;rounded=1;shadow=0;comic=0;labelBackgroundColor=none;strokeWidth=1;fontFamily=Verdana;fontSize=12;align=center;" parent="1" vertex="1">
          <mxGeometry x="1350" y="320" width="100" height="1000" as="geometry" />
        </mxCell>
        <mxCell id="WB4wZnMkrDHjOiweGWmY-39" value="" style="html=1;points=[];perimeter=orthogonalPerimeter;rounded=0;shadow=0;comic=0;labelBackgroundColor=none;strokeWidth=1;fontFamily=Verdana;fontSize=12;align=center;" vertex="1" parent="7baba1c4bc27f4b0-6">
          <mxGeometry x="45" y="594" width="10" height="93" as="geometry" />
        </mxCell>
        <mxCell id="WB4wZnMkrDHjOiweGWmY-40" value="" style="html=1;points=[];perimeter=orthogonalPerimeter;rounded=0;shadow=0;comic=0;labelBackgroundColor=none;strokeWidth=1;fontFamily=Verdana;fontSize=12;align=center;" vertex="1" parent="7baba1c4bc27f4b0-6">
          <mxGeometry x="40" y="616" width="10" height="50" as="geometry" />
        </mxCell>
        <mxCell id="7baba1c4bc27f4b0-7" value=":Decryption" style="shape=umlLifeline;perimeter=lifelinePerimeter;whiteSpace=wrap;html=1;container=1;collapsible=0;recursiveResize=0;outlineConnect=0;rounded=1;shadow=0;comic=0;labelBackgroundColor=none;strokeWidth=1;fontFamily=Verdana;fontSize=12;align=center;" parent="1" vertex="1">
          <mxGeometry x="1490" y="320" width="100" height="1000" as="geometry" />
        </mxCell>
        <mxCell id="WB4wZnMkrDHjOiweGWmY-46" value="" style="html=1;points=[];perimeter=orthogonalPerimeter;rounded=0;shadow=0;comic=0;labelBackgroundColor=none;strokeWidth=1;fontFamily=Verdana;fontSize=12;align=center;" vertex="1" parent="7baba1c4bc27f4b0-7">
          <mxGeometry x="45" y="740" width="10" height="50" as="geometry" />
        </mxCell>
        <mxCell id="WB4wZnMkrDHjOiweGWmY-47" value="Enter Key" style="html=1;verticalAlign=bottom;endArrow=open;dashed=1;endSize=8;curved=0;rounded=0;" edge="1" parent="7baba1c4bc27f4b0-7">
          <mxGeometry x="0.842" relative="1" as="geometry">
            <mxPoint x="45" y="789" as="sourcePoint" />
            <mxPoint x="-805" y="789" as="targetPoint" />
            <mxPoint as="offset" />
          </mxGeometry>
        </mxCell>
        <mxCell id="WB4wZnMkrDHjOiweGWmY-49" value="" style="html=1;points=[];perimeter=orthogonalPerimeter;rounded=0;shadow=0;comic=0;labelBackgroundColor=none;strokeWidth=1;fontFamily=Verdana;fontSize=12;align=center;" vertex="1" parent="7baba1c4bc27f4b0-7">
          <mxGeometry x="45" y="830" width="10" height="160" as="geometry" />
        </mxCell>
        <mxCell id="WB4wZnMkrDHjOiweGWmY-50" value="" style="html=1;points=[];perimeter=orthogonalPerimeter;rounded=0;shadow=0;comic=0;labelBackgroundColor=none;strokeWidth=1;fontFamily=Verdana;fontSize=12;align=center;" vertex="1" parent="7baba1c4bc27f4b0-7">
          <mxGeometry x="50" y="850" width="10" height="50" as="geometry" />
        </mxCell>
        <mxCell id="WB4wZnMkrDHjOiweGWmY-51" value="&lt;font style=&quot;font-size: 10px;&quot;&gt;Decrypt File Contents&lt;/font&gt;" style="html=1;verticalAlign=bottom;endArrow=block;labelBackgroundColor=none;fontFamily=Verdana;fontSize=12;elbow=vertical;edgeStyle=orthogonalEdgeStyle;curved=1;entryX=0.997;entryY=0.562;entryDx=0;entryDy=0;entryPerimeter=0;" edge="1" parent="7baba1c4bc27f4b0-7" target="WB4wZnMkrDHjOiweGWmY-50">
          <mxGeometry x="-0.2565" y="6" relative="1" as="geometry">
            <mxPoint x="55.40000000000009" y="840" as="sourcePoint" />
            <mxPoint x="55" y="878.1" as="targetPoint" />
            <Array as="points">
              <mxPoint x="104" y="840" />
              <mxPoint x="104" y="878" />
            </Array>
            <mxPoint as="offset" />
          </mxGeometry>
        </mxCell>
        <mxCell id="WB4wZnMkrDHjOiweGWmY-54" value="" style="html=1;points=[];perimeter=orthogonalPerimeter;rounded=0;shadow=0;comic=0;labelBackgroundColor=none;strokeWidth=1;fontFamily=Verdana;fontSize=12;align=center;" vertex="1" parent="7baba1c4bc27f4b0-7">
          <mxGeometry x="40" y="910" width="10" height="50" as="geometry" />
        </mxCell>
        <mxCell id="WB4wZnMkrDHjOiweGWmY-57" value="File Decrypted Successfully" style="html=1;verticalAlign=bottom;endArrow=open;dashed=1;endSize=8;curved=0;rounded=0;entryX=1.027;entryY=0.774;entryDx=0;entryDy=0;entryPerimeter=0;" edge="1" parent="7baba1c4bc27f4b0-7">
          <mxGeometry x="0.8006" relative="1" as="geometry">
            <mxPoint x="45" y="980" as="sourcePoint" />
            <mxPoint x="-804.7299999999998" y="980.5519999999999" as="targetPoint" />
            <mxPoint as="offset" />
          </mxGeometry>
        </mxCell>
        <mxCell id="7baba1c4bc27f4b0-8" value=":User" style="shape=umlLifeline;perimeter=lifelinePerimeter;whiteSpace=wrap;html=1;container=1;collapsible=0;recursiveResize=0;outlineConnect=0;rounded=1;shadow=0;comic=0;labelBackgroundColor=none;strokeWidth=1;fontFamily=Verdana;fontSize=12;align=center;" parent="1" vertex="1">
          <mxGeometry x="630" y="320" width="100" height="1040" as="geometry" />
        </mxCell>
        <mxCell id="WB4wZnMkrDHjOiweGWmY-38" value="Download File" style="html=1;verticalAlign=bottom;endArrow=block;curved=0;rounded=0;entryX=-0.033;entryY=0.064;entryDx=0;entryDy=0;entryPerimeter=0;" edge="1" parent="7baba1c4bc27f4b0-8" target="WB4wZnMkrDHjOiweGWmY-39">
          <mxGeometry x="0.8177" width="80" relative="1" as="geometry">
            <mxPoint x="55" y="600" as="sourcePoint" />
            <mxPoint x="760" y="600" as="targetPoint" />
            <mxPoint as="offset" />
          </mxGeometry>
        </mxCell>
        <mxCell id="WB4wZnMkrDHjOiweGWmY-59" value="" style="html=1;points=[[0,0,0,0,5],[0,1,0,0,-5],[1,0,0,0,5],[1,1,0,0,-5]];perimeter=orthogonalPerimeter;outlineConnect=0;targetShapes=umlLifeline;portConstraint=eastwest;newEdgeStyle={&quot;curved&quot;:0,&quot;rounded&quot;:0};" vertex="1" parent="7baba1c4bc27f4b0-8">
          <mxGeometry x="45" y="40" width="10" height="1000" as="geometry" />
        </mxCell>
        <mxCell id="7baba1c4bc27f4b0-11" value="&lt;font face=&quot;Helvetica&quot;&gt;login&lt;/font&gt;" style="html=1;verticalAlign=bottom;endArrow=block;entryX=0;entryY=0;labelBackgroundColor=none;fontFamily=Verdana;fontSize=12;edgeStyle=elbowEdgeStyle;elbow=vertical;" parent="1" target="7baba1c4bc27f4b0-10" edge="1">
          <mxGeometry relative="1" as="geometry">
            <mxPoint x="685" y="419.66666666666674" as="sourcePoint" />
          </mxGeometry>
        </mxCell>
        <mxCell id="WB4wZnMkrDHjOiweGWmY-8" value="Upload file" style="html=1;verticalAlign=bottom;endArrow=block;curved=0;rounded=0;entryX=-0.036;entryY=-0.001;entryDx=0;entryDy=0;entryPerimeter=0;exitX=1.033;exitY=0.203;exitDx=0;exitDy=0;exitPerimeter=0;" edge="1" parent="1" target="7baba1c4bc27f4b0-13">
          <mxGeometry x="0.4808" y="-1" width="80" relative="1" as="geometry">
            <mxPoint x="685.3299999999999" y="510.33500000000004" as="sourcePoint" />
            <mxPoint x="950" y="549.71" as="targetPoint" />
            <mxPoint as="offset" />
          </mxGeometry>
        </mxCell>
        <mxCell id="WB4wZnMkrDHjOiweGWmY-15" value="File Details Stored" style="html=1;verticalAlign=bottom;endArrow=openThin;curved=0;rounded=0;entryX=0.988;entryY=0.856;entryDx=0;entryDy=0;entryPerimeter=0;dashed=1;endFill=0;" edge="1" parent="1" source="WB4wZnMkrDHjOiweGWmY-13" target="7baba1c4bc27f4b0-13">
          <mxGeometry x="0.0011" width="80" relative="1" as="geometry">
            <mxPoint x="1170" y="530" as="sourcePoint" />
            <mxPoint x="990.02" y="570.1500000000001" as="targetPoint" />
            <mxPoint as="offset" />
          </mxGeometry>
        </mxCell>
        <mxCell id="WB4wZnMkrDHjOiweGWmY-17" value="File Uploaded Successfully" style="html=1;verticalAlign=bottom;endArrow=open;curved=0;rounded=0;exitX=0.02;exitY=1.001;exitDx=0;exitDy=0;exitPerimeter=0;entryX=0.951;entryY=0.36;entryDx=0;entryDy=0;entryPerimeter=0;dashed=1;endFill=0;" edge="1" parent="1" source="7baba1c4bc27f4b0-13">
          <mxGeometry x="0.4118" width="80" relative="1" as="geometry">
            <mxPoint x="850" y="590" as="sourcePoint" />
            <mxPoint x="684.5099999999998" y="580.2" as="targetPoint" />
            <mxPoint as="offset" />
          </mxGeometry>
        </mxCell>
        <mxCell id="WB4wZnMkrDHjOiweGWmY-14" value="Store File Details" style="html=1;verticalAlign=bottom;endArrow=block;curved=0;rounded=0;exitX=1.049;exitY=0.139;exitDx=0;exitDy=0;exitPerimeter=0;" edge="1" parent="1" source="7baba1c4bc27f4b0-13" target="WB4wZnMkrDHjOiweGWmY-13">
          <mxGeometry width="80" relative="1" as="geometry">
            <mxPoint x="990" y="520" as="sourcePoint" />
            <mxPoint x="1070" y="520" as="targetPoint" />
          </mxGeometry>
        </mxCell>
        <mxCell id="WB4wZnMkrDHjOiweGWmY-18" value="Encrypt File" style="html=1;verticalAlign=bottom;endArrow=block;curved=0;rounded=0;entryX=0.016;entryY=0.01;entryDx=0;entryDy=0;entryPerimeter=0;" edge="1" parent="1" target="WB4wZnMkrDHjOiweGWmY-19">
          <mxGeometry x="0.7581" width="80" relative="1" as="geometry">
            <mxPoint x="685" y="620" as="sourcePoint" />
            <mxPoint x="1250" y="620" as="targetPoint" />
            <mxPoint as="offset" />
          </mxGeometry>
        </mxCell>
        <mxCell id="WB4wZnMkrDHjOiweGWmY-22" value="Login success" style="html=1;verticalAlign=bottom;endArrow=open;dashed=1;endSize=8;curved=0;rounded=0;entryX=1.05;entryY=0.114;entryDx=0;entryDy=0;entryPerimeter=0;" edge="1" parent="1">
          <mxGeometry relative="1" as="geometry">
            <mxPoint x="820" y="470" as="sourcePoint" />
            <mxPoint x="685.5" y="470.73000000000025" as="targetPoint" />
          </mxGeometry>
        </mxCell>
        <mxCell id="WB4wZnMkrDHjOiweGWmY-23" value="Enter Key" style="html=1;verticalAlign=bottom;endArrow=open;dashed=1;endSize=8;curved=0;rounded=0;exitX=0.5;exitY=1;exitDx=0;exitDy=0;exitPerimeter=0;entryX=1.019;entryY=0.568;entryDx=0;entryDy=0;entryPerimeter=0;" edge="1" parent="1" source="WB4wZnMkrDHjOiweGWmY-19">
          <mxGeometry x="0.7397" relative="1" as="geometry">
            <mxPoint x="1110" y="640" as="sourcePoint" />
            <mxPoint x="685.19" y="672.7600000000002" as="targetPoint" />
            <mxPoint as="offset" />
          </mxGeometry>
        </mxCell>
        <mxCell id="WB4wZnMkrDHjOiweGWmY-25" value="Key (1 - 9)" style="html=1;verticalAlign=bottom;endArrow=block;curved=0;rounded=0;exitX=1.018;exitY=0.659;exitDx=0;exitDy=0;exitPerimeter=0;" edge="1" parent="1" target="WB4wZnMkrDHjOiweGWmY-26">
          <mxGeometry x="0.758" width="80" relative="1" as="geometry">
            <mxPoint x="685.1799999999998" y="713.2550000000001" as="sourcePoint" />
            <mxPoint x="1240" y="710" as="targetPoint" />
            <mxPoint as="offset" />
          </mxGeometry>
        </mxCell>
        <mxCell id="WB4wZnMkrDHjOiweGWmY-33" value="&lt;font style=&quot;font-size: 10px;&quot;&gt;File details stored&lt;/font&gt;" style="html=1;verticalAlign=bottom;endArrow=open;dashed=1;endSize=8;curved=0;rounded=0;exitX=0.981;exitY=1.001;exitDx=0;exitDy=0;exitPerimeter=0;entryX=-0.023;entryY=0.999;entryDx=0;entryDy=0;entryPerimeter=0;" edge="1" parent="1" source="WB4wZnMkrDHjOiweGWmY-32" target="WB4wZnMkrDHjOiweGWmY-29">
          <mxGeometry relative="1" as="geometry">
            <mxPoint x="1190" y="830" as="sourcePoint" />
            <mxPoint x="1270" y="830" as="targetPoint" />
          </mxGeometry>
        </mxCell>
        <mxCell id="WB4wZnMkrDHjOiweGWmY-34" value="File Encrypted Successfully" style="html=1;verticalAlign=bottom;endArrow=open;dashed=1;endSize=8;curved=0;rounded=0;exitX=-0.033;exitY=0.983;exitDx=0;exitDy=0;exitPerimeter=0;" edge="1" parent="1" source="WB4wZnMkrDHjOiweGWmY-26">
          <mxGeometry x="0.6665" relative="1" as="geometry">
            <mxPoint x="1250" y="860" as="sourcePoint" />
            <mxPoint x="685" y="867.1099999999999" as="targetPoint" />
            <mxPoint as="offset" />
          </mxGeometry>
        </mxCell>
        <mxCell id="WB4wZnMkrDHjOiweGWmY-42" value="&lt;font style=&quot;font-size: 9px;&quot;&gt;Retrieve File&lt;/font&gt;" style="html=1;verticalAlign=bottom;endArrow=block;curved=0;rounded=0;exitX=0;exitY=0.08;exitDx=0;exitDy=0;exitPerimeter=0;entryX=1.033;entryY=0.082;entryDx=0;entryDy=0;entryPerimeter=0;" edge="1" parent="1" source="WB4wZnMkrDHjOiweGWmY-40" target="WB4wZnMkrDHjOiweGWmY-41">
          <mxGeometry x="0.5869" width="80" relative="1" as="geometry">
            <mxPoint x="1345" y="940" as="sourcePoint" />
            <mxPoint x="1265" y="940" as="targetPoint" />
            <mxPoint as="offset" />
          </mxGeometry>
        </mxCell>
        <mxCell id="WB4wZnMkrDHjOiweGWmY-43" value="File Retrieved" style="html=1;verticalAlign=bottom;endArrow=open;dashed=1;endSize=8;curved=0;rounded=0;exitX=1.081;exitY=0.824;exitDx=0;exitDy=0;exitPerimeter=0;" edge="1" parent="1" source="WB4wZnMkrDHjOiweGWmY-41" target="WB4wZnMkrDHjOiweGWmY-40">
          <mxGeometry x="0.5458" relative="1" as="geometry">
            <mxPoint x="1220" y="960" as="sourcePoint" />
            <mxPoint x="1300" y="960" as="targetPoint" />
            <mxPoint as="offset" />
          </mxGeometry>
        </mxCell>
        <mxCell id="WB4wZnMkrDHjOiweGWmY-44" value="File Downloaded" style="html=1;verticalAlign=bottom;endArrow=open;dashed=1;endSize=8;curved=0;rounded=0;exitX=-0.026;exitY=0.922;exitDx=0;exitDy=0;exitPerimeter=0;entryX=1.012;entryY=0.512;entryDx=0;entryDy=0;entryPerimeter=0;" edge="1" parent="1" source="WB4wZnMkrDHjOiweGWmY-39">
          <mxGeometry x="0.8171" relative="1" as="geometry">
            <mxPoint x="1150" y="1040" as="sourcePoint" />
            <mxPoint x="685.1199999999999" y="999.7759999999998" as="targetPoint" />
            <mxPoint as="offset" />
          </mxGeometry>
        </mxCell>
        <mxCell id="WB4wZnMkrDHjOiweGWmY-45" value="Decrypt File" style="html=1;verticalAlign=bottom;endArrow=block;curved=0;rounded=0;entryX=0.005;entryY=0.009;entryDx=0;entryDy=0;entryPerimeter=0;" edge="1" parent="1" target="WB4wZnMkrDHjOiweGWmY-46">
          <mxGeometry x="0.8596" width="80" relative="1" as="geometry">
            <mxPoint x="685" y="1060" as="sourcePoint" />
            <mxPoint x="1508" y="1060" as="targetPoint" />
            <mxPoint as="offset" />
          </mxGeometry>
        </mxCell>
        <mxCell id="WB4wZnMkrDHjOiweGWmY-48" value="Key (1 - 9)" style="html=1;verticalAlign=bottom;endArrow=block;curved=0;rounded=0;exitX=0.987;exitY=0.652;exitDx=0;exitDy=0;exitPerimeter=0;entryX=0.022;entryY=0.06;entryDx=0;entryDy=0;entryPerimeter=0;" edge="1" parent="1" target="WB4wZnMkrDHjOiweGWmY-49">
          <mxGeometry x="0.848" width="80" relative="1" as="geometry">
            <mxPoint x="684.8699999999999" y="1160.496" as="sourcePoint" />
            <mxPoint x="770" y="1160" as="targetPoint" />
            <mxPoint as="offset" />
          </mxGeometry>
        </mxCell>
        <mxCell id="WB4wZnMkrDHjOiweGWmY-55" value="Store Decrypted File Details" style="html=1;verticalAlign=bottom;endArrow=block;curved=0;rounded=0;exitX=-0.002;exitY=0.08;exitDx=0;exitDy=0;exitPerimeter=0;entryX=0.96;entryY=0.086;entryDx=0;entryDy=0;entryPerimeter=0;" edge="1" parent="1" source="WB4wZnMkrDHjOiweGWmY-54" target="WB4wZnMkrDHjOiweGWmY-58">
          <mxGeometry x="0.6096" width="80" relative="1" as="geometry">
            <mxPoint x="1520" y="1234.5" as="sourcePoint" />
            <mxPoint x="1130" y="1234" as="targetPoint" />
            <mxPoint as="offset" />
          </mxGeometry>
        </mxCell>
        <mxCell id="WB4wZnMkrDHjOiweGWmY-56" value="Decrypted File Details Stored" style="html=1;verticalAlign=bottom;endArrow=open;dashed=1;endSize=8;curved=0;rounded=0;entryX=-0.029;entryY=0.88;entryDx=0;entryDy=0;entryPerimeter=0;exitX=1.004;exitY=0.876;exitDx=0;exitDy=0;exitPerimeter=0;" edge="1" parent="1" source="WB4wZnMkrDHjOiweGWmY-58" target="WB4wZnMkrDHjOiweGWmY-54">
          <mxGeometry x="0.5621" relative="1" as="geometry">
            <mxPoint x="1130" y="1274" as="sourcePoint" />
            <mxPoint x="1530" y="1270" as="targetPoint" />
            <mxPoint as="offset" />
          </mxGeometry>
        </mxCell>
      </root>
    </mxGraphModel>
  </diagram>
</mxfile>
